# AST/ASF file generated using VICON BodyLanguage
# -----------------------------------------------
:version 1.10
:name VICON
:units
  mass 1.0
  length 0.45
  angle deg
:documentation
   .ast/.asf automatically generated from VICON data using
   VICON BodyBuilder and BodyLanguage model FoxedUp or BRILLIANT.MOD
:root
   order TX TY TZ RX RY RZ
   axis XYZ
   position 0 0 0  
   orientation 0 0 0 
:bonedata
  begin
     id 1 
     name lhipjoint
     direction 0.610259 -0.730986 0.305356 
     length 2.50941 
     axis 0 0 0  XYZ
  end
  begin
     id 2 
     name lfemur
     direction 0.34202 -0.939693 0  
     length 7.48822  
     axis 0 0 20  XYZ
    dof rx ry rz
    limits (-160.0 20.0)
           (-70.0 70.0)
           (-60.0 70.0)
  end
  begin
     id 3 
     name ltibia
     direction 0.34202 -0.939693 0   
     length 7.60141   
     axis 0 0 20   XYZ
    dof rx
    limits (-10.0 170.0)
  end
  begin
     id 4 
     name lfoot
     direction 0.0673488 -0.185039 0.980421   
     length 2.04049   
     axis -90 7.62852e-016 20   XYZ
    dof rx rz
    limits (-45.0 90.0)
           (-70.0 20.0)
  end
  begin
     id 5 
     name ltoes
     direction 1.5356e-011 -4.21729e-011 1   
     length 1.02897   
     axis -90 7.62852e-016 20   XYZ
    dof rx
    limits (-90.0 20.0)
  end
  begin
     id 6 
     name rhipjoint
     direction -0.57612 -0.754205 0.315056   
     length 2.43216  
     axis 0 0 0  XYZ 
  end
  begin
     id 7 
     name rfemur
     direction -0.34202 -0.939693 0   
     length 7.42799   
     axis 0 0 -20   XYZ
    dof rx ry rz
    limits (-160.0 20.0)
           (-70.0 70.0)
           (-70.0 60.0)
  end
  begin
     id 8 
     name rtibia
     direction -0.34202 -0.939693 0   
     length 7.69484   
     axis 0 0 -20   XYZ
    dof rx
    limits (-10.0 170.0)
 end
 begin
     id 9 
     name rfoot
     direction -0.111837 -0.30727 0.945028   
     length 2.15769  
     axis -90 -7.62852e-016 -20   XYZ
    dof rx rz
    limits (-45.0 90.0)
           (-20.0 70.0)
  end
  begin
     id 10 
     name rtoes
     direction -1.53539e-011 -4.21878e-011 1   
     length 1.07391   
     axis -90 -7.62852e-016 -20   XYZ
    dof rx
    limits (-90.0 20.0)
  end
  begin
     id 11 
     name lowerback
     direction 0.00552624 0.990109 -0.140195   
     length 2.12403   
     axis 0 0 0   XYZ
    dof rx ry rz
    limits (-20.0 45.0)
           (-30.0 30.0)
           (-30.0 30.0)
  end
  begin
     id 12 
     name upperback
     direction 0.00361898 0.999976 -0.00584723   
     length 2.13232   
     axis 0 0 0   XYZ
    dof rx ry rz
    limits (-20.0 45.0)
           (-30.0 30.0)
           (-30.0 30.0)
  end
  begin
     id 13 
     name thorax
     direction -0.000331275 0.998253 0.0590847   
     length 2.17688   
     axis 0 0 0   XYZ
    dof rx ry rz
    limits (-20.0 45.0)
           (-30.0 30.0)
           (-30.0 30.0)
  end
  begin
     id 14 
     name lowerneck
     direction -0.0561561 0.979832 0.19177   
     length 1.64159   
     axis 0 0 0   XYZ
    dof rx ry rz
    limits (-20.0 45.0)
           (-30.0 30.0)
           (-30.0 30.0)
  end
  begin
     id 15 
     name upperneck
     direction 0.0827153 0.979385 -0.184293   
     length 1.68939   
     axis 0 0 0   XYZ
    dof rx ry rz
    limits (-20.0 45.0)
           (-30.0 30.0)
           (-30.0 30.0)
  end
  begin
     id 16
     name head
     direction 0.0278583 0.995936 -0.0856488  
     length 1.70207  
     axis 0 0 0   XYZ
    dof rx ry rz
    limits (-20.0 45.0)
           (-30.0 30.0)
           (-30.0 30.0)
  end
  begin
     id 17 
     name lclavicle
     direction 0.950993 0.301131 -0.0702275  
     length 3.41652  
     axis 0 0 0   XYZ
    dof ry rz
    limits (-20.0 10.0)
           (0.0 20.0)
  end
  begin
     id 18 
     name lhumerus
     direction 1 -4.48981e-011 -3.9662e-029   
     length 5.32955   
     axis 180 -30 -90   XYZ
    dof rx ry rz
    limits (-60.0 90.0)
           (-90.0 90.0)
           (-90.0 90.0)
  end
  begin
     id 19
     name lradius
     direction 1 -4.48925e-011 -9.0549e-027   
     length 3.69232   
     axis 180 -30 -90   XYZ
    dof rx
    limits (-10.0 170.0)
  end
  begin
     id 20
     name lwrist
     direction 1 -4.49007e-011 -1.49005e-026   
     length 1.84616   
     axis 9.0955e-015 90 90   XYZ
    dof ry
    limits (-180.0 0.0)
 end
  begin
     id 21 
     name lhand
     direction 1 -4.49016e-011 -2.98023e-026   
     length 0.536598   
     axis 1.90115e-014 90 90   XYZ
    dof rx rz
    limits (-90.0 90.0)
           (-45.0 45.0)
  end
  begin
     id 22 
     name lfingers
     direction 1 -4.48924e-011 -5.9578e-026   
     length 0.432619   
     axis 3.80223e-014 90 90   XYZ
    dof rx
    limits (0.0 90.0)
  end
  begin
     id 23
     name lthumb
     direction 0.707107 -6.34947e-011 0.707107   
     length 0.621157   
     axis -90 45 -3.84942e-014   XYZ
    dof rx rz
    limits (-45.0 45.0)
           (-45.0 45.0)
  end
  begin
     id 24 
     name rclavicle
     direction -0.955495 0.276497 -0.102848   
     length 3.36357  
     axis 0 0 0   XYZ 
    dof ry rz
    limits (-10.0 20.0)
           (-20.0 0.0)
  end
  begin
     id 25 
     name rhumerus
     direction -1 -4.48961e-011 3.30983e-027  
     length 5.23431   
     axis 180 30 90   XYZ
    dof rx ry rz
    limits (-90.0 60.0)
           (-90.0 90.0)
           (-90.0 90.0)
  end
  begin
     id 26 
     name rradius
     direction -1 -4.48965e-011 -6.63263e-027   
     length 3.55301   
     axis 180 30 90   XYZ
    dof rx
    limits (-10.0 170.0)
  end
  begin
     id 27 
     name rwrist
     direction -1 -4.48942e-011 -1.48958e-026   
     length 1.77651   
     axis 9.0955e-015 -90 -90   XYZ
    dof ry
    limits (-180.0 0.0)
  end
  begin
     id 28
     name rhand
     direction -1 -4.48977e-011 -2.97966e-026   
     length 0.772522   
     axis 1.90115e-014 -90 -90   XYZ
    dof rx rz
    limits (-90.0 90.0)
           (-45.0 45.0)
  end
  begin
     id 29
     name rfingers
     direction -1 -4.49135e-011 -5.96389e-026   
     length 0.622827   
     axis 3.80223e-014 -90 -90   XYZ
    dof rx
    limits (0.0 90.0)
  end
  begin
     id 30
     name rthumb
     direction -0.707107 -6.34969e-011 0.707107   
     length 0.894259   
     axis -90 -45 3.84942e-014   XYZ
    dof rx rz
    limits (-45.0 45.0)
           (-45.0 45.0)
  end
:hierarchy
  begin
    root lhipjoint rhipjoint lowerback
    lhipjoint lfemur
    lfemur ltibia
    ltibia lfoot
    lfoot ltoes
    rhipjoint rfemur
    rfemur rtibia
    rtibia rfoot
    rfoot rtoes
    lowerback upperback
    upperback thorax
    thorax lowerneck lclavicle rclavicle
    lowerneck upperneck
    upperneck head
    lclavicle lhumerus
    lhumerus lradius
    lradius lwrist
    lwrist lhand lthumb
    lhand lfingers
    rclavicle rhumerus
    rhumerus rradius
    rradius rwrist
    rwrist rhand rthumb
    rhand rfingers
  end

#!OML:ASF F:\VICON\USERDATA\INSTALL\rory3\rory3.ASF
:FULLY-SPECIFIED
:DEGREES
48
root -13.4602 17.9221 -4.35369 -2.33042 -1.3967 -1.35336
lowerback 11.0862 0.693277 -0.274034
upperback 0.63582 0.960839 1.27625
thorax -5.58245 0.495024 1.3399
lowerneck -21.6042 -6.02531 -12.955
upperneck 28.5266 -7.09542 9.50571
head 14.2396 -3.21216 4.73209
rclavicle 7.77745e-015 -1.45113e-014
rhumerus -37.2676 -15.6693 -78.6794
rradius 31.5582
rwrist 4.5703
rhand -16.2085 12.2579
rfingers 7.12502
rthumb 9.99904 -17.4846
lclavicle 7.77745e-015 -1.45113e-014
lhumerus -32.919 0.652235 86.8852
lradius 29.4295
lwrist -10.3968
lhand -17.1039 26.03
lfingers 7.12502
lthumb 9.13508 55.8121
rfemur -7.68191 0.128178 27.0435
rtibia 26.2127
rfoot -11.4876 -2.40011
rtoes 9.03175
lfemur -13.2531 -0.110051 -18.7194
ltibia 55.3135
lfoot -2.45917 -6.52693
ltoes -8.28174
49
root -13.4619 17.9034 -4.2147 -2.37026 -1.5331 -1.48233
lowerback 11.1378 0.807264 -0.0645234
upperback 0.594072 1.13838 1.25975
thorax -5.65551 0.577057 1.17562
lowerneck -21.3391 -6.06993 -13.0021
upperneck 28.4256 -7.19885 9.58356
head 14.1601 -3.25687 4.75015
rclavicle 7.76503e-015 -8.54774e-015
rhumerus -37.0575 -14.9092 -79.1693
rradius 32.487
rwrist 3.69507
rhand -15.8928 10.142
rfingers 7.12502
rthumb 10.3035 -19.5856
lclavicle 7.76503e-015 -8.54774e-015
lhumerus -33.1866 0.537751 86.9284
lradius 29.3789
lwrist -8.43313
lhand -17.7071 26.1292
lfingers 7.12502
lthumb 8.55305 55.936
rfemur -7.15525 0.0118165 27.1734
rtibia 26.2886
rfoot -12.0253 -2.24153
rtoes 9.98052
lfemur -14.2891 -0.27079 -18.5965
ltibia 55.0348
lfoot -3.44014 -5.96626
ltoes -8.29816
50
root -13.4652 17.8847 -4.07326 -2.37573 -1.71107 -1.52208
lowerback 11.1448 0.927298 0.0354842
upperback 0.513456 1.30915 1.21878
thorax -5.74489 0.65817 1.04856
lowerneck -21.0584 -6.11057 -13.1059
upperneck 28.3683 -7.28804 9.68243
head 14.0983 -3.30029 4.79175
rclavicle 1.01753e-014 1.8487e-014
rhumerus -36.8882 -14.5187 -79.399
rradius 32.9512
rwrist 3.32757
rhand -15.7621 9.73001
rfingers 7.12502
rthumb 10.4297 -19.9913
lclavicle 1.01753e-014 1.8487e-014
lhumerus -33.4843 0.65948 86.8378
lradius 29.3688
lwrist -7.47178
lhand -17.751 26.7588
lfingers 7.12502
lthumb 8.5106 56.5673
rfemur -6.70941 -0.0233635 27.2213
rtibia 26.4719
rfoot -12.6352 -2.13505
rtoes 10.4934
lfemur -15.2755 -0.392557 -18.5581
ltibia 54.6069
lfoot -4.45442 -5.37441
ltoes -8.26842
51
root -13.4671 17.8616 -3.93308 -2.36257 -1.87242 -1.54314
lowerback 11.138 1.02304 0.149942
upperback 0.44188 1.44841 1.16283
thorax -5.81488 0.722946 0.902722
lowerneck -20.8463 -6.12081 -13.0885
upperneck 28.2957 -7.32113 9.64636
head 14.0237 -3.32195 4.76555
rclavicle -2.19284e-015 5.96354e-016
rhumerus -36.7277 -14.147 -79.6045
rradius 33.4151
rwrist 3.20749
rhand -15.8222 9.58359
rfingers 7.12502
rthumb 10.3717 -20.1406
lclavicle -2.19284e-015 5.96354e-016
lhumerus -33.7871 0.894147 86.6493
lradius 29.4397
lwrist -7.24314
lhand -17.6815 27.3091
lfingers 7.12502
lthumb 8.57773 57.1149
rfemur -6.3146 0.00500571 27.2556
rtibia 26.7087
rfoot -13.2698 -2.14076
rtoes 10.5997
lfemur -16.2883 -0.601993 -18.5405
ltibia 54.0482
lfoot -5.07651 -4.74146
ltoes -7.09525
52
root -13.4693 17.8422 -3.79188 -2.35947 -2.02686 -1.68588
lowerback 11.0116 1.11247 0.333249
upperback 0.547452 1.58807 1.16973
thorax -5.63022 0.786858 0.787569
lowerneck -21.0009 -6.14292 -13.0206
upperneck 28.2127 -7.33975 9.61602
head 14.0189 -3.32109 4.73286
rclavicle -3.48494e-015 -8.54774e-015
rhumerus -36.2952 -13.789 -79.8545
rradius 34.0125
rwrist 3.11685
rhand -16.0536 9.25858
rfingers 7.12502
rthumb 10.1484 -20.4767
lclavicle -3.48494e-015 -8.54774e-015
lhumerus -33.7369 1.30068 86.4467
lradius 29.4304
lwrist -7.14291
lhand -17.7984 27.6379
lfingers 7.12502
lthumb 8.46492 57.4482
rfemur -5.84483 0.0894319 27.4309
rtibia 26.8535
rfoot -13.984 -2.25936
rtoes 11.2828
lfemur -17.2339 -0.77117 -18.3414
ltibia 53.3309
lfoot -5.85382 -4.20399
ltoes -7.41577
53
root -13.4703 17.827 -3.652 -2.34717 -2.19427 -1.7658
lowerback 10.9166 1.23578 0.522465
upperback 0.643069 1.76847 1.09482
thorax -5.47057 0.870158 0.577409
lowerneck -21.0922 -6.23187 -13.0805
upperneck 28.1095 -7.48923 9.79976
head 14.0285 -3.36419 4.7861
rclavicle -2.46307e-014 3.08116e-015
rhumerus -35.8571 -13.5192 -80.1804
rradius 34.5908
rwrist 2.92308
rhand -16.2394 8.66219
rfingers 7.12502
rthumb 9.96918 -21.0817
lclavicle -2.46307e-014 3.08116e-015
lhumerus -33.5734 1.67759 86.1645
lradius 29.2963
lwrist -7.18842
lhand -17.7729 27.4132
lfingers 7.12502
lthumb 8.4895 57.2225
rfemur -5.32181 0.159315 27.5232
rtibia 26.8498
rfoot -14.6472 -2.34576
rtoes 11.3675
lfemur -18.1104 -0.911771 -18.2171
ltibia 52.4648
lfoot -6.41243 -3.46155
ltoes -7.97393
54
root -13.4716 17.8197 -3.51774 -2.25769 -2.40814 -1.9469
lowerback 10.9656 1.35973 0.815069
upperback 0.565273 1.9689 1.05574
thorax -5.57015 0.960462 0.33877
lowerneck -20.9648 -6.30718 -13.2048
upperneck 28.0481 -7.6201 9.95821
head 14.0092 -3.41624 4.84684
rclavicle -1.1778e-014 -4.87022e-015
rhumerus -35.6145 -13.2615 -80.3951
rradius 35.057
rwrist 2.85935
rhand -16.1911 8.27651
rfingers 7.12502
rthumb 10.0158 -21.4652
lclavicle -1.1778e-014 -4.87022e-015
lhumerus -33.6877 2.07512 85.8722
lradius 29.2044
lwrist -7.35046
lhand -17.773 26.875
lfingers 7.12502
lthumb 8.48939 56.6843
rfemur -4.86629 0.426818 27.7519
rtibia 26.7216
rfoot -15.0405 -2.42996
rtoes 11.5738
lfemur -19.073 -1.09099 -17.9661
ltibia 51.4409
lfoot -6.89147 -2.69169
ltoes -10.7796
55
root -13.4758 17.8165 -3.38447 -2.15834 -2.58428 -2.20757
lowerback 11.0004 1.44883 1.0941
upperback 0.500915 2.126 1.09465
thorax -5.64917 1.03043 0.196298
lowerneck -20.9432 -6.31669 -13.1905
upperneck 28.0273 -7.63891 9.95424
head 13.9975 -3.4235 4.83833
rclavicle 1.40392e-014 6.55989e-015
rhumerus -35.3054 -12.8275 -80.5959
rradius 35.5052
rwrist 2.41016
rhand -16.0699 8.05692
rfingers 7.12502
rthumb 10.1327 -21.6791
lclavicle 1.40392e-014 6.55989e-015
lhumerus -33.863 2.35487 85.6827
lradius 29.2576
lwrist -7.42011
lhand -17.7283 26.8369
lfingers 7.12502
lthumb 8.53251 56.6445
rfemur -4.39007 0.799816 28.1163
rtibia 26.5246
rfoot -15.276 -2.62693
rtoes 11.7338
lfemur -20.0043 -1.3433 -17.5671
ltibia 50.2626
lfoot -7.25943 -2.04965
ltoes -11.6986
56
root -13.476 17.8095 -3.24428 -2.08501 -2.73259 -2.19506
lowerback 10.91 1.53655 1.11213
upperback 0.493267 2.24202 1.07311
thorax -5.60472 1.08708 0.148017
lowerneck -21.0387 -6.3188 -13.1033
upperneck 28.0323 -7.6361 9.88025
head 14.0113 -3.41969 4.79225
rclavicle 2.54072e-015 2.48481e-015
rhumerus -34.9504 -12.3691 -80.7583
rradius 35.8846
rwrist 1.95155
rhand -16.2142 8.06495
rfingers 7.12502
rthumb 9.9935 -21.6778
lclavicle 2.54072e-015 2.48481e-015
lhumerus -34.0161 2.8928 85.4433
lradius 29.2628
lwrist -7.7398
lhand -17.8384 26.6153
lfingers 7.12502
lthumb 8.42627 56.4272
rfemur -3.80081 0.885717 28.1175
rtibia 26.2358
rfoot -15.6071 -2.63855
rtoes 10.4673
lfemur -20.6639 -1.63719 -17.4917
ltibia 48.946
lfoot -7.31735 -1.44635
ltoes -7.78373
57
root -13.4713 17.7982 -3.10208 -2.07098 -3.0009 -2.16988
lowerback 10.9123 1.66052 1.19765
upperback 0.462687 2.41391 1.00461
thorax -5.63111 1.16819 0.00120536
lowerneck -21.0151 -6.33678 -12.9988
upperneck 27.9935 -7.67705 9.8079
head 13.9866 -3.43557 4.73443
rclavicle 1.03865e-014 -1.09332e-014
rhumerus -34.7098 -12.1532 -80.8459
rradius 36.1877
rwrist 1.93167
rhand -16.2669 8.03001
rfingers 7.12502
rthumb 9.94264 -21.7152
lclavicle 1.03865e-014 -1.09332e-014
lhumerus -34.2079 3.42033 85.1301
lradius 29.0376
lwrist -8.21933
lhand -18.5885 25.2116
lfingers 7.12502
lthumb 7.70238 55.0513
rfemur -3.10671 0.940147 28.0466
rtibia 25.8851
rfoot -15.9081 -2.54832
rtoes 9.80219
lfemur -21.0958 -1.93661 -17.4497
ltibia 47.5421
lfoot -7.1533 -0.509745
ltoes -3.41782
58
root -13.4726 17.7895 -2.9651 -2.05694 -3.31792 -2.42238
lowerback 11.0344 1.76851 1.45035
upperback 0.427694 2.59553 1.06338
thorax -5.72702 1.25042 -0.112099
lowerneck -21.0173 -6.35943 -13.0503
upperneck 27.9749 -7.69274 9.81815
head 13.9847 -3.44632 4.74367
rclavicle -2.61091e-014 -9.64106e-015
rhumerus -34.4363 -11.7894 -80.961
rradius 36.58
rwrist 1.82821
rhand -16.2772 7.76026
rfingers 7.12502
rthumb 9.93273 -21.9854
lclavicle -2.61091e-014 -9.64106e-015
lhumerus -34.3888 3.88718 84.8881
lradius 28.791
lwrist -8.73091
lhand -19.3718 23.3573
lfingers 7.12502
lthumb 6.94627 53.2234
rfemur -2.4188 1.23382 28.3509
rtibia 25.5201
rfoot -16.0613 -2.68428
rtoes 9.97618
lfemur -21.5916 -2.13852 -17.0396
ltibia 46.0521
lfoot -6.79179 0.474061
ltoes -2.07862
59
root -13.4776 17.7852 -2.82992 -1.96608 -3.52223 -2.74263
lowerback 11.0297 1.84714 1.72788
upperback 0.442662 2.74005 1.16003
thorax -5.69925 1.3156 -0.188823
lowerneck -21.0599 -6.3649 -12.9912
upperneck 27.8582 -7.69304 9.77681
head 13.9384 -3.44283 4.71096
rclavicle 2.48481e-017 -1.49089e-015
rhumerus -34.0005 -11.4967 -81.0868
rradius 36.8915
rwrist 1.52054
rhand -16.4947 7.2883
rfingers 7.12502
rthumb 9.72288 -22.4673
lclavicle 2.48481e-017 -1.49089e-015
lhumerus -34.4118 4.11657 84.7973
lradius 28.7265
lwrist -8.73156
lhand -19.5065 23.0896
lfingers 7.12502
lthumb 6.81624 52.9598
rfemur -1.7729 1.54354 28.7575
rtibia 25.0944
rfoot -16.1353 -2.80377
rtoes 10.4784
lfemur -22.1959 -2.3417 -16.5269
ltibia 44.4796
lfoot -6.79529 1.32978
ltoes -3.03725
60
root -13.4776 17.786 -2.68924 -1.87912 -3.62629 -2.78621
lowerback 10.891 1.90055 1.86789
upperback 0.487981 2.81979 1.0955
thorax -5.56262 1.35218 -0.340958
lowerneck -21.0478 -6.36691 -12.8107
upperneck 27.6984 -7.74299 9.75184
head 13.8639 -3.44679 4.65352
rclavicle 1.2862e-014 -5.11871e-015
rhumerus -33.5934 -11.2647 -81.2849
rradius 37.1881
rwrist 1.2723
rhand -16.498 7.60161
rfingers 7.12502
rthumb 9.71972 -22.1541
lclavicle 1.2862e-014 -5.11871e-015
lhumerus -34.4586 4.16279 84.6622
lradius 28.8584
lwrist -8.52303
lhand -19.4137 23.7517
lfingers 7.12502
lthumb 6.90581 53.6191
rfemur -1.07321 1.56686 28.7893
rtibia 24.63
rfoot -16.2463 -2.71068
rtoes 11.13
lfemur -22.6767 -2.64759 -16.3785
ltibia 42.7924
lfoot -7.23461 2.5181
ltoes -6.79319
